<?xml version="1.0" encoding="utf-8"?>
<!-- Generator: Adobe Illustrator 25.0.0, SVG Export Plug-In . SVG Version: 6.00 Build 0)  -->
<svg version="1.1" id="Layer_1" xmlns="http://www.w3.org/2000/svg" xmlns:xlink="http://www.w3.org/1999/xlink" x="0px" y="0px"
	 viewBox="0 0 69.8 69.8" style="enable-background:new 0 0 69.8 69.8;" xml:space="preserve">
<g>
	<path d="M34.9,68.4c-18.6,0-33.6-14.9-33.6-33.5c0-18.4,15-33.4,33.4-33.5C53.1,1.3,68.4,16.6,68.4,35
		C68.3,53.3,53.3,68.3,34.9,68.4z M35,65.1c16.6-0.1,30.2-13.7,30.1-30.3C65,18.2,51.4,4.6,34.8,4.6C18,4.7,4.5,18.4,4.6,35.2
		C4.7,51.8,18.3,65.2,35,65.1z"/>
	<path d="M35,50.9c-9,0.1-16.1-6.9-16.2-15.8c-0.1-9,7.1-16.4,16-16.4c8.8,0,16.1,7.3,16.1,16C51,43.7,43.8,50.9,35,50.9z
		 M34.9,47.7c7.1,0,12.9-5.8,12.9-12.8c0-7-6-12.9-12.9-12.9C27.7,22,22,27.8,22,34.9C22,42.1,27.7,47.7,34.9,47.7z"/>
	<path d="M38.2,11.7c0,1.8-1.6,3.4-3.4,3.4c-1.7-0.1-3.1-1.5-3.1-3.2c0-1.8,1.2-3.2,3-3.3C36.5,8.4,38.1,9.8,38.2,11.7z"/>
	<path d="M54.5,18.4c0.1,1.9-1.5,3.4-3.3,3.4c-1.7,0-3.2-1.5-3.2-3.2c-0.1-1.9,1.5-3.4,3.3-3.4C53.1,15.3,54.4,16.6,54.5,18.4z"/>
	<path d="M51.1,48.1c1.8,0,3.2,1.2,3.3,3c0.1,1.9-1.3,3.5-3.2,3.6c-1.8,0-3.4-1.6-3.4-3.4C48,49.5,49.4,48.1,51.1,48.1z"/>
	<path d="M38.2,58c0.1,1.7-1.6,3.4-3.4,3.4c-1.7,0-3.1-1.4-3.2-3.2c-0.1-1.9,1.1-3.2,2.9-3.3C36.5,54.8,38.1,56.2,38.2,58z"/>
	<path d="M18.5,21.8c-1.8,0-3.4-1.6-3.4-3.4c0.1-1.7,1.6-3.1,3.3-3.2c1.9,0,3.3,1.4,3.3,3.4C21.6,20.4,20.2,21.8,18.5,21.8z"/>
	<path d="M11.8,38.1c-1.9,0.1-3.5-1.4-3.4-3.3c0-1.6,1.5-3.2,3.2-3.3c1.8-0.1,3.4,1.4,3.4,3.3C14.9,36.8,13.6,38.1,11.8,38.1z"/>
	<path d="M61.3,34.9c0,1.8-1.2,3.2-3,3.3c-1.9,0.1-3.5-1.3-3.5-3.2c0-1.8,1.7-3.4,3.4-3.4C59.8,31.7,61.2,33.1,61.3,34.9z"/>
	<path d="M21.7,51.3c0,1.8-1.4,3.2-3.1,3.3c-1.7,0.1-3.5-1.6-3.5-3.3c0-1.8,1.6-3.3,3.5-3.2C20.4,48.2,21.7,49.5,21.7,51.3z"/>
</g>
</svg>
