<?xml version="1.0" encoding="utf-8"?>
<!-- Generator: Adobe Illustrator 25.0.0, SVG Export Plug-In . SVG Version: 6.00 Build 0)  -->
<svg version="1.1" id="Layer_1" xmlns="http://www.w3.org/2000/svg" xmlns:xlink="http://www.w3.org/1999/xlink" x="0px" y="0px"
	 viewBox="0 0 69.8 69.8" style="enable-background:new 0 0 69.8 69.8;" xml:space="preserve">
<path d="M30.3,31.7c-3.6-3.6-7-6.9-10.4-10.2c-0.9-0.9-1.8-1.7-2.5-2.6c-2.9-3.5-2.8-8.2,0.3-11.2c3-2.9,7.7-3,10.9-0.1
	c2.9,2.6,5.6,5.4,8.3,8.2c0.9,1,1.7,2.1,2.5,3.2c2.9-2.2,4.3-4.7,6.1-7.1c-3.1-3.7-4.4-7.5-1.2-12c1.9,0.7,2.8,1.6,1.9,3.8
	c-0.7,1.8-0.2,3.6,1.5,4.8c7-4.1,11.7-4.1,15.5-0.1c3.8,3.9,3.7,8.7-0.4,15.4c1.5,1.5,3,3,4.5,4.6c1.8,1.8,2.7,4,2.5,6.6
	c-0.3,3-1.8,5.3-4.6,6.5c-2.9,1.2-5.7,1-8.2-1c-1.4-1.1-2.6-2.5-3.9-3.8c-1-1-2.1-2-3.3-3.3c-2.3,1.7-4.5,3.4-7,5.3
	c2,2.8,4.5,4.8,6.7,7.1c2.3,2.4,4.6,4.7,6.9,7c2.3,2.3,4.7,4.5,7.3,7c-0.9,1.1-1.6,1.8-2.4,2.7C54,55.4,47,48.4,39.8,41.2
	c-1.3,1-2.3,1.7-3.4,2.5c-9.5,7.7-19,15.4-28.5,23.2c-0.8,0.7-1.7,1.5-2.6,1.9c-0.5,0.2-1.6,0.1-1.9-0.3c-0.4-0.5-0.7-1.6-0.5-2.2
	c0.4-1,1.2-1.8,1.9-2.6c7.7-9.5,15.4-19,23.1-28.6C28.6,34.1,29.3,33.1,30.3,31.7z M49.4,19.5c2.5-2.4,4.4-4.2,5.9-5.7
	c3.2,0.8,2.1,2.5,1.4,4c0.6,0.7,1.1,1.2,1.6,1.7c0.5,0.4,1.1,0.8,1.6,1.2c3.2-3.4,3.3-7.4,0.4-10c-2.9-2.7-7.3-2.5-9.9,0.8
	c-5.2,6.5-10.2,13.2-15.3,19.8c1.7,1.8,3.2,3.4,4.8,5.1c5.8-4.5,11.3-8.7,16.9-13.1c-1.1-1.3-1.9-2.3-2.6-3.1
	c-1,0.5-1.6,0.8-2.3,1.2C51.2,20.9,50.4,20.3,49.4,19.5z M32.5,29.1c2-2.7,3.7-4.9,5.4-7.2c-4-4.1-7.8-8-11.7-11.7
	c-1.7-1.6-4.4-1.4-6,0.1c-1.7,1.6-2,4.3-0.3,6.2C23.9,20.6,28,24.7,32.5,29.1z M59.6,25.8c-2.5,1.9-4.8,3.7-7.2,5.6
	c2.5,2.4,4.5,4.6,6.7,6.4c1.8,1.5,4.4,1.3,6-0.3c1.6-1.6,1.8-4.1,0.3-5.9C63.5,29.6,61.6,27.8,59.6,25.8z M16,54.7
	c2.9-0.8,18.3-13.4,20.3-16c-1.1-1.4-2.2-2.8-3.5-4.4C27,41.4,21.5,48.1,16,54.7z"/>
</svg>
