<?xml version="1.0" encoding="utf-8"?>
<!-- Generator: Adobe Illustrator 23.0.5, SVG Export Plug-In . SVG Version: 6.00 Build 0)  -->
<svg version="1.1" id="Layer_1" xmlns="http://www.w3.org/2000/svg" xmlns:xlink="http://www.w3.org/1999/xlink" x="0px" y="0px"
	 viewBox="0 0 69.8 69.8" style="enable-background:new 0 0 69.8 69.8;" xml:space="preserve">
<style type="text/css">
	.st0{fill:none;stroke:#000000;stroke-miterlimit:10;}
</style>
<g>
	<g>
		<path d="M37.08,12.2c0.2-0.8,0.35-1.35,0.5-1.85c1.05-3.2,4.25-5.35,7.5-5.1c3.6,0.25,6.35,2.75,6.95,6.2
			c0.1,0.65,0.15,1.35,0.15,2c0,5.65,0.05,11.3,0,17c0,1-0.1,2.05-0.4,3c-0.9,3.15-3.75,5.2-7.25,5.2c-5.7,0.05-11.45,0-17.15,0
			c-2.8,0-5.6,0-8.4,0c-0.4-1.25-0.5-24.45-0.1-26.5C24.93,12.2,30.93,12.2,37.08,12.2z M50.44,26.2c0.05-0.55,0.15-0.85,0.15-1.15
			c0-3.95,0-7.95,0-11.9c0-0.6-0.05-1.25-0.2-1.85c-0.6-2.25-2-3.75-4.25-4.3c-3.7-0.9-7.15,1.75-7.25,5.65
			c-0.05,4.25,0,8.5,0,12.75c0,0.2,0.05,0.4,0.15,0.8C42.83,22.95,46.59,22.95,50.44,26.2z M44.59,37.05
			c3.25,0.05,5.9-2.55,5.95-5.8c0-3.25-2.6-5.85-5.85-5.85c-3.2,0-5.8,2.55-5.85,5.7C38.78,34.35,41.38,37,44.59,37.05z M37.08,21.7
			c-0.2,0-0.3,0-0.4,0.05c-5.25,2.75-10.5,5.55-15.75,8.3c-0.75,0.4-0.75,1-0.5,1.65c0.15,0,0.3,0,0.4-0.05
			c5.25-2.75,10.5-5.55,15.75-8.3C37.33,23,37.28,22.4,37.08,21.7z M20.53,35.4c5.4-2.9,10.7-5.7,15.95-8.5
			c0.75-0.4,0.85-0.95,0.55-1.7c-0.15,0-0.35-0.05-0.5,0.05c-5.15,2.75-10.35,5.5-15.55,8.25C20.23,33.9,20.18,34.45,20.53,35.4z
			 M25.53,34.85c4,1.15,7.65,2.95,12.1,2c-0.6-0.25-0.95-0.4-1.3-0.5c-2.6-0.8-5.25-1.55-7.85-2.4
			C27.33,33.55,26.53,33.85,25.53,34.85z M20.38,21.75c2.45,0.75,4.75,1.4,7.05,2.15c1.1,0.35,1.9,0,2.85-0.95
			c-3.4-1.05-6.55-2-9.8-3c-0.1,0.4-0.2,0.6-0.2,0.8C20.28,21.05,20.38,21.35,20.38,21.75z M34.48,13.9
			c-2.35-0.25-2.35-0.25-3.9,0.6c-1.95,1.05-3.95,2.1-5.9,3.15c-0.6,0.35-1.25,0.65-2.05,1.1c1,0.7,1.75,0.7,2.65,0.25
			c2.7-1.5,5.4-2.9,8.15-4.35C33.68,14.5,33.93,14.3,34.48,13.9z M36.98,14.6c-3.4,1.8-6.7,3.55-10.15,5.35
			c0.85,0.65,1.5,0.85,2.3,0.4c2.4-1.3,4.85-2.6,7.3-3.85C37.13,16.15,37.38,15.65,36.98,14.6z M38.03,35.15
			c-0.2-1.35-0.6-2.1-1.8-2.35s-2.4-0.65-3.55-1.05c-1.15-0.45-2.05-0.15-3.05,0.85C32.48,33.5,35.18,34.3,38.03,35.15z M20.48,17.8
			c1.65-0.45,6.45-3.05,7.35-4.15c-1.15,0.15-2.1,0.15-2.95,0.5c-1.3,0.5-2.45,1.3-3.7,1.9C20.33,16.4,20.08,16.95,20.48,17.8z
			 M30.98,21.25c1,0.75,1.75,0.8,2.6,0.3c0.9-0.55,1.85-1,2.8-1.5c0.85-0.4,1.05-1,0.6-1.95C34.98,19.15,33.08,20.15,30.98,21.25z
			 M20.38,25.2c0.9,0.3,1.75,0.5,2.55,0.85c1.2,0.5,2.15,0.25,3.2-0.8c-1.95-0.6-3.75-1.15-5.75-1.75
			C20.38,24.15,20.38,24.6,20.38,25.2z M37.08,31.3c0-0.9,0-1.75,0-2.85c-1.1,0.75-2.3,0.9-3.1,2c0.8,0.25,1.4,0.45,2.05,0.6
			C36.33,31.15,36.63,31.2,37.08,31.3z M26.03,37c-2.35-1.4-3.3-1.4-4.2,0C23.18,37,24.53,37,26.03,37z M21.78,27.7
			c0-0.1-0.05-0.25-0.05-0.35c-0.4-0.1-0.8-0.2-1.3-0.3c0,0.45,0,0.85,0,1.4C20.93,28.1,21.38,27.9,21.78,27.7z"/>
	</g>
	<g>
		<g>
			<path d="M23.05,54.31c-0.11-0.36-0.23-0.67-0.4-0.93c-0.23-0.38-0.41-0.47-1.06-0.47h-1.21c-0.36,0-0.4,0.03-0.4,0.39v2.74h1.45
				c0.84,0,0.9-0.15,1.08-0.99h0.38v2.54H22.5c-0.15-0.84-0.25-1.03-1.07-1.03h-1.45v2.1c0,1.05,0.11,1.11,1.2,1.2v0.36h-3.42v-0.36
				c0.96-0.07,1.07-0.16,1.07-1.2v-4.69c0-1.05-0.12-1.1-1.07-1.2v-0.36h3.85c1.07,0,1.51-0.01,1.71-0.02
				c0.01,0.39,0.06,1.26,0.12,1.86L23.05,54.31z"/>
			<path d="M28.85,60.36c-0.21,0-0.47-0.1-0.6-0.23c-0.16-0.15-0.23-0.32-0.29-0.52c-0.48,0.32-1.06,0.75-1.41,0.75
				c-0.88,0-1.49-0.72-1.49-1.49c0-0.6,0.32-0.96,0.97-1.2c0.73-0.25,1.64-0.56,1.9-0.78V56.6c0-0.81-0.4-1.28-1-1.28
				c-0.26,0-0.43,0.13-0.55,0.27c-0.13,0.17-0.21,0.43-0.32,0.78c-0.06,0.22-0.19,0.3-0.38,0.3c-0.24,0-0.56-0.25-0.56-0.54
				c0-0.18,0.15-0.32,0.4-0.5c0.38-0.27,1.08-0.7,1.76-0.84c0.38,0,0.76,0.11,1.05,0.33c0.44,0.36,0.62,0.79,0.62,1.41v2.27
				c0,0.56,0.2,0.72,0.41,0.72c0.14,0,0.29-0.06,0.42-0.13l0.12,0.35L28.85,60.36z M27.93,57.33c-0.26,0.13-0.77,0.36-1.04,0.48
				c-0.44,0.2-0.71,0.43-0.71,0.86c0,0.64,0.48,0.92,0.84,0.92c0.29,0,0.67-0.16,0.9-0.39C27.93,58.64,27.93,57.89,27.93,57.33z"/>
			<path d="M33.62,54.94c0.23-0.1,0.42-0.14,0.59-0.14c1.31,0,2.38,1.13,2.38,2.54c0,1.63-1.39,3.03-3,3.02
				c-0.55,0-1.21-0.12-1.9-0.43c0-0.31,0-0.63,0-0.95v-5.74c0-0.73-0.04-0.81-0.79-0.87v-0.33c0.57-0.07,1.37-0.25,1.85-0.41
				c0,0.46,0,0.93,0,1.4v2.28L33.62,54.94z M32.74,58.84c0,0.19,0.02,0.3,0.06,0.42c0.13,0.28,0.58,0.63,1.13,0.63
				c0.96,0,1.47-0.86,1.47-2.23c0-1.4-0.81-2.16-1.76-2.16c-0.33,0-0.68,0.09-0.9,0.2V58.84z"/>
			<path d="M40.96,60.22h-2.83v-0.35c0.73-0.07,0.8-0.13,0.8-0.9v-2.52c0-0.76-0.05-0.8-0.72-0.89v-0.31
				c0.62-0.09,1.18-0.24,1.77-0.49c0,0.4,0,0.92,0,1.32c0.44-0.66,0.93-1.28,1.51-1.28c0.44,0,0.71,0.28,0.71,0.6
				c0,0.33-0.23,0.61-0.44,0.72c-0.13,0.07-0.23,0.05-0.32-0.03c-0.18-0.18-0.33-0.31-0.54-0.31c-0.24,0-0.66,0.33-0.91,0.92v2.26
				c0,0.78,0.06,0.83,0.97,0.91V60.22z"/>
			<path d="M43.37,60.22v-0.35c0.74-0.07,0.82-0.13,0.82-0.95v-2.45c0-0.75-0.04-0.8-0.73-0.91v-0.31c0.65-0.1,1.25-0.26,1.79-0.47
				c0,0.5,0,1,0,1.51v2.63c0,0.82,0.08,0.88,0.84,0.95v0.35H43.37z M44.65,53.68c-0.36,0-0.68-0.32-0.68-0.67
				c0-0.4,0.32-0.69,0.69-0.69c0.36,0,0.66,0.29,0.66,0.69C45.32,53.36,45.02,53.68,44.65,53.68z"/>
			<path d="M51.98,59.12c-0.53,0.71-1.33,1.24-2.06,1.24c-1.55,0-2.46-1.24-2.46-2.53c0-0.94,0.42-1.74,1.21-2.34
				c0.66-0.51,1.39-0.69,1.87-0.69c0.52,0,0.92,0.16,1.1,0.32c0.17,0.13,0.2,0.22,0.2,0.37c0,0.3-0.31,0.56-0.45,0.56
				c-0.06,0-0.12-0.03-0.23-0.12c-0.4-0.35-0.8-0.53-1.22-0.53c-0.73,0-1.4,0.63-1.4,1.89c-0.01,1.65,1.13,2.2,1.8,2.2
				c0.5,0,0.9-0.13,1.43-0.63L51.98,59.12z"/>
		</g>
	</g>
</g>
<rect x="2.64" y="2.64" class="st0" width="64.51" height="64.51"/>
</svg>
