<?xml version="1.0" encoding="utf-8"?>
<!-- Generator: Adobe Illustrator 23.0.5, SVG Export Plug-In . SVG Version: 6.00 Build 0)  -->
<svg version="1.1" id="Layer_1" xmlns="http://www.w3.org/2000/svg" xmlns:xlink="http://www.w3.org/1999/xlink" x="0px" y="0px"
	 viewBox="0 0 69.8 69.8" style="enable-background:new 0 0 69.8 69.8;" xml:space="preserve">
<style type="text/css">
	.st0{fill:none;stroke:#000000;stroke-miterlimit:10;}
</style>
<path d="M34.06,23.03c0-1.23,0-2.47,0-3.64c0-1.59,0-1.59,1.47-2c1.47-0.47,2.23-1.35,2.35-2.64c0.12-1.41-0.65-2.64-2-3.11
	c-1.35-0.47-2.88,0.06-3.58,1.29c-0.23,0.41-0.35,0.82-0.59,1.35c-0.47,0-0.94,0-1.41,0c0.29-2.58,1.94-4.29,4.29-4.46
	c2.11-0.18,4.29,1.35,4.81,3.41c0.65,2.58-0.53,4.46-3.64,5.99c0,1.17,0,2.47,0,3.88c0.59,0.23,1.23,0.47,1.88,0.7
	c3.88,1.29,7.75,2.58,11.63,3.88c1.29,0.41,2.23,1.17,2.64,2.47c0.59,2-0.7,4.05-2.76,4.4c-0.53,0.06-1.06,0.06-1.53,0.06
	c-8.46,0-16.97,0-25.42,0c-0.53,0-1.06,0-1.53-0.06c-1.47-0.23-2.64-1.41-2.88-2.82c-0.23-1.47,0.47-2.94,1.82-3.64
	c0.53-0.23,1.06-0.41,1.59-0.65c3.58-1.17,7.22-2.41,10.8-3.58C32.65,23.55,33.3,23.32,34.06,23.03z M34.94,32.83
	c4.29,0,8.51,0,12.8,0c1.76,0,2.52-0.41,2.7-1.53c0.18-1.12-0.41-1.76-2.06-2.35c-4.05-1.35-8.1-2.64-12.1-4.05
	c-0.94-0.29-1.76-0.29-2.64,0c-3.99,1.35-7.99,2.64-11.98,3.99c-0.41,0.12-0.88,0.29-1.29,0.53c-0.7,0.41-1.06,1.06-0.88,1.88
	c0.18,0.82,0.7,1.35,1.53,1.47c0.47,0.06,0.94,0.06,1.35,0.06C26.54,32.83,30.71,32.83,34.94,32.83z"/>
<g>
	<g>
		<path d="M9.93,54.52c-0.19-0.73-0.5-1.46-1.54-1.46c-0.82,0-1.14,0.6-1.14,1.18c0,0.74,0.47,1.12,1.4,1.6
			c1.3,0.67,1.91,1.19,1.91,2.25c0,1.19-1.02,2.08-2.48,2.08c-0.67,0-1.26-0.19-1.72-0.36c-0.08-0.3-0.23-1.12-0.3-1.71l0.36-0.09
			c0.22,0.73,0.73,1.74,1.87,1.74c0.77,0,1.25-0.53,1.25-1.25c0-0.81-0.44-1.16-1.41-1.69c-1.16-0.63-1.83-1.16-1.83-2.21
			c0-1.02,0.83-1.94,2.33-1.94c0.65,0,1.25,0.17,1.48,0.21c0.04,0.4,0.09,0.87,0.18,1.58L9.93,54.52z"/>
		<path d="M17.46,59.74c-0.56,0.08-1.17,0.22-1.77,0.39c0-0.19,0-0.56,0-0.83c-0.57,0.48-1.05,0.83-1.66,0.83
			c-0.77,0-1.39-0.48-1.39-1.65v-2.17c0-0.58-0.08-0.65-0.37-0.71l-0.3-0.06v-0.3c0.49-0.02,1.25-0.13,1.67-0.2
			c-0.03,0.37-0.03,0.91-0.03,1.63v1.52c0,0.93,0.48,1.2,0.96,1.2c0.39,0,0.77-0.16,1.12-0.49v-2.59c0-0.58-0.12-0.66-0.48-0.72
			l-0.35-0.05v-0.3c0.7-0.03,1.5-0.14,1.81-0.2v3.69c0,0.56,0.08,0.64,0.49,0.67l0.3,0.01V59.74z"/>
		<path d="M21.6,56.47c-0.21-0.67-0.52-1.09-1.17-1.09c-0.37,0-0.67,0.27-0.67,0.7c0,0.46,0.31,0.68,0.92,0.96
			c0.94,0.44,1.44,0.78,1.44,1.54c0,1.03-0.95,1.56-1.84,1.56c-0.58,0-1.1-0.18-1.33-0.31c-0.05-0.31-0.15-0.95-0.19-1.31l0.33-0.06
			c0.21,0.71,0.6,1.3,1.37,1.3c0.42,0,0.75-0.28,0.75-0.72c0-0.47-0.27-0.72-0.88-1.02c-0.77-0.37-1.41-0.73-1.41-1.55
			c0-0.82,0.69-1.45,1.76-1.45c0.48,0,0.86,0.11,1.09,0.15c0.03,0.27,0.11,0.97,0.17,1.24L21.6,56.47z"/>
		<path d="M25.71,59.99c-0.19,0.1-0.37,0.14-0.47,0.14c-0.73,0-1.13-0.43-1.13-1.33v-3.2h-0.75l-0.05-0.13l0.3-0.34h0.5v-0.93
			c0.24-0.23,0.6-0.53,0.84-0.76l0.16,0.03c-0.02,0.43-0.03,1.07-0.03,1.65h1.23c0.1,0.11,0.06,0.37-0.07,0.47h-1.16v2.81
			c0,0.89,0.35,1.04,0.63,1.04c0.25,0,0.49-0.09,0.65-0.17l0.1,0.31L25.71,59.99z"/>
		<path d="M31.17,60.13c-0.19,0-0.43-0.09-0.55-0.21c-0.15-0.14-0.21-0.3-0.27-0.48c-0.44,0.29-0.98,0.7-1.3,0.7
			c-0.82,0-1.38-0.67-1.38-1.37c0-0.55,0.29-0.89,0.9-1.1c0.67-0.23,1.51-0.52,1.75-0.72v-0.27c0-0.75-0.36-1.18-0.92-1.18
			c-0.24,0-0.4,0.12-0.51,0.25c-0.12,0.16-0.2,0.4-0.29,0.72c-0.06,0.2-0.17,0.28-0.35,0.28c-0.22,0-0.52-0.23-0.52-0.5
			c0-0.16,0.14-0.3,0.37-0.46c0.35-0.25,1-0.64,1.63-0.78c0.35,0,0.7,0.1,0.97,0.3c0.4,0.33,0.57,0.72,0.57,1.3v2.1
			c0,0.51,0.19,0.66,0.38,0.66c0.13,0,0.27-0.05,0.39-0.12l0.11,0.32L31.17,60.13z M30.32,57.33c-0.24,0.12-0.71,0.33-0.96,0.44
			c-0.41,0.19-0.65,0.39-0.65,0.8c0,0.59,0.44,0.85,0.77,0.85c0.26,0,0.62-0.15,0.83-0.36C30.32,58.55,30.32,57.85,30.32,57.33z"/>
		<path d="M33.25,60v-0.32c0.68-0.07,0.75-0.12,0.75-0.88v-2.26c0-0.7-0.04-0.74-0.68-0.84v-0.28c0.6-0.1,1.15-0.24,1.65-0.43
			c0,0.46,0,0.93,0,1.39v2.43c0,0.75,0.07,0.81,0.78,0.88V60H33.25z M34.43,53.97c-0.33,0-0.62-0.29-0.62-0.62
			c0-0.37,0.29-0.64,0.64-0.64c0.33,0,0.61,0.27,0.61,0.64C35.04,53.68,34.77,53.97,34.43,53.97z"/>
		<path d="M40.14,60v-0.32c0.61-0.07,0.67-0.14,0.67-0.89v-1.84c0-0.78-0.3-1.25-0.96-1.25c-0.42,0-0.82,0.24-1.16,0.53v2.61
			c0,0.75,0.06,0.77,0.68,0.84V60h-2.42v-0.32c0.7-0.08,0.77-0.12,0.77-0.85v-2.28c0-0.71-0.08-0.74-0.66-0.84v-0.3
			c0.56-0.09,1.14-0.23,1.63-0.44c0,0.24,0,0.6,0,0.86c0.22-0.15,0.46-0.32,0.74-0.5c0.31-0.2,0.59-0.32,0.91-0.32
			c0.89,0,1.44,0.65,1.44,1.74v2.1c0,0.74,0.07,0.77,0.69,0.84V60H40.14z"/>
		<path d="M47.36,60.13c-0.19,0-0.43-0.09-0.55-0.21c-0.15-0.14-0.21-0.3-0.27-0.48c-0.44,0.29-0.98,0.7-1.3,0.7
			c-0.82,0-1.38-0.67-1.38-1.37c0-0.55,0.29-0.89,0.9-1.1c0.67-0.23,1.51-0.52,1.75-0.72v-0.27c0-0.75-0.36-1.18-0.92-1.18
			c-0.24,0-0.4,0.12-0.51,0.25c-0.12,0.16-0.2,0.4-0.29,0.72c-0.06,0.2-0.17,0.28-0.35,0.28c-0.22,0-0.52-0.23-0.52-0.5
			c0-0.16,0.14-0.3,0.37-0.46c0.35-0.25,1-0.64,1.63-0.78c0.35,0,0.7,0.1,0.97,0.3c0.4,0.33,0.57,0.72,0.57,1.3v2.1
			c0,0.51,0.19,0.66,0.38,0.66c0.13,0,0.27-0.05,0.39-0.12l0.11,0.32L47.36,60.13z M46.51,57.33c-0.24,0.12-0.71,0.33-0.96,0.44
			c-0.41,0.19-0.65,0.39-0.65,0.8c0,0.59,0.44,0.85,0.77,0.85c0.26,0,0.62-0.15,0.83-0.36C46.51,58.55,46.51,57.85,46.51,57.33z"/>
		<path d="M51.75,55.13c0.21-0.09,0.39-0.13,0.54-0.13c1.21,0,2.19,1.04,2.19,2.34c0,1.51-1.29,2.8-2.76,2.79
			c-0.51,0-1.12-0.11-1.75-0.4c0-0.28,0-0.58,0-0.88v-5.29c0-0.68-0.04-0.75-0.73-0.8v-0.3c0.53-0.06,1.26-0.23,1.71-0.38
			c0,0.42,0,0.86,0,1.29v2.11L51.75,55.13z M50.94,58.73c0,0.17,0.01,0.28,0.06,0.39c0.12,0.26,0.53,0.58,1.04,0.58
			c0.89,0,1.35-0.79,1.35-2.06c0-1.29-0.75-2-1.62-2c-0.3,0-0.62,0.09-0.83,0.19V58.73z"/>
		<path d="M55.75,60v-0.32c0.69-0.07,0.77-0.13,0.77-0.85v-5.25c0-0.66-0.06-0.72-0.74-0.82v-0.3c0.63-0.07,1.33-0.24,1.71-0.38
			c0,0.52,0,1.04,0,1.56v5.19c0,0.73,0.06,0.78,0.76,0.85V60H55.75z"/>
		<path d="M63.61,59.03c-0.7,0.9-1.5,1.1-1.87,1.1c-1.37,0-2.2-1.1-2.2-2.38c0-0.76,0.28-1.46,0.74-1.95
			c0.47-0.52,1.08-0.8,1.66-0.8c0.98,0,1.72,0.84,1.72,1.73c-0.01,0.21-0.04,0.33-0.21,0.37c-0.22,0.05-1.66,0.14-2.93,0.19
			c-0.02,1.43,0.84,2.03,1.63,2.03c0.45,0,0.87-0.18,1.28-0.55L63.61,59.03z M61.69,55.43c-0.5,0-0.97,0.48-1.11,1.38
			c0.59,0,1.17,0,1.79-0.03c0.19,0,0.26-0.05,0.26-0.22C62.64,55.97,62.28,55.43,61.69,55.43z"/>
	</g>
</g>
<rect x="2.64" y="2.64" class="st0" width="64.51" height="64.51"/>
</svg>
