<?xml version="1.0" encoding="utf-8"?>
<!-- Generator: Adobe Illustrator 25.0.0, SVG Export Plug-In . SVG Version: 6.00 Build 0)  -->
<svg version="1.1" id="Layer_1" xmlns="http://www.w3.org/2000/svg" xmlns:xlink="http://www.w3.org/1999/xlink" x="0px" y="0px"
	 viewBox="0 0 69.8 69.8" style="enable-background:new 0 0 69.8 69.8;" xml:space="preserve">
<path d="M61,10.6c1.9,3.9,3.8,7.8,5.9,12c-7,1.9-11.9,5.8-13.1,13c-1.2,7.3,2.2,12.6,8.5,16.4c-1.6,3.5-3.2,6.9-4.9,10.5
	c-3.7-2.1-7.3-3.3-11.3-2.5c-4,0.8-7.1,3.1-9.8,6.7c-2.4-3.4-5.4-5.8-9.4-6.6c-4-0.9-7.7,0.2-11.4,2.2c-1.8-3.6-3.4-7-5.1-10.3
	c13.4-8.5,10.1-25.9-4.7-29.5c1.7-4.1,3.5-8.1,5.2-12.3c3.3,0.3,6.5,0.7,9.6-0.9c2.9-1.6,4.7-4.1,6.1-7.2c6.1,0,12,0,18,0.1
	c0.7,0,1.7,0.6,2,1.2c2.8,5.6,7.3,7.7,13.4,6.9C60.2,10.5,60.4,10.5,61,10.6z M58.2,53.4c-10.5-8.4-11.4-24.9,4.1-33
	c-0.8-1.6-1.6-3.3-2.4-4.9c-0.5-1.3-1.4-1.7-2.8-1.8c-5.3,0-9.4-2.4-12.3-6.8c-0.9-1.3-1.9-1.6-3.3-1.6c-3.5,0-7,0.1-10.4,0
	c-1.8-0.1-2.9,0.6-4,2.1c-2.8,4.1-6.8,6.2-11.9,6.3c-0.7,0-1.5,0-2.5,0c-1,2.3-1.9,4.6-2.9,6.9c6.8,3.1,11,7.9,11.9,15.1
	c0.9,7.2-2.1,12.8-7.4,17.5c0.9,1.7,1.6,3.2,2.4,4.8c3.5-1.2,6.9-2,10.2-1c3.3,1,6.3,2.7,9.7,4.2c5.3-4.8,11.9-5.7,19.1-3.1
	C56.8,56.5,57.4,55.1,58.2,53.4z"/>
<path d="M37.7,31.1c-0.9,0-1.7,0-2.7,0c0-2.8,0-5.5,0-8.4c0.9,0,1.7,0,2.7,0C37.7,25.5,37.7,28.1,37.7,31.1z"/>
<path d="M34.8,46.9c0-2,0-3.7,0-5.4c0-1,0.1-1.9,0.2-3c1,0,1.8,0,2.8,0c0,2.8,0,5.3,0,8.2C36.8,46.7,36,46.8,34.8,46.9z"/>
</svg>
