<?xml version="1.0" encoding="utf-8"?>
<!-- Generator: Adobe Illustrator 23.0.5, SVG Export Plug-In . SVG Version: 6.00 Build 0)  -->
<svg version="1.1" id="Layer_1" xmlns="http://www.w3.org/2000/svg" xmlns:xlink="http://www.w3.org/1999/xlink" x="0px" y="0px"
	 viewBox="0 0 69.8 69.8" style="enable-background:new 0 0 69.8 69.8;" xml:space="preserve">
<style type="text/css">
	.st0{fill:none;stroke:#000000;stroke-miterlimit:10;}
</style>
<g>
	<g>
		<path d="M19.77,54.27c-0.21-0.79-0.55-1.58-1.67-1.58c-0.89,0-1.24,0.65-1.24,1.28c0,0.8,0.51,1.21,1.52,1.73
			c1.41,0.72,2.07,1.29,2.07,2.44c0,1.29-1.11,2.26-2.68,2.26c-0.73,0-1.36-0.2-1.87-0.39c-0.09-0.32-0.25-1.22-0.33-1.85l0.39-0.1
			c0.24,0.79,0.79,1.89,2.03,1.89c0.84,0,1.35-0.57,1.35-1.35c0-0.88-0.48-1.26-1.53-1.83c-1.26-0.68-1.98-1.26-1.98-2.4
			c0-1.1,0.9-2.11,2.53-2.11c0.7,0,1.35,0.18,1.61,0.23c0.05,0.43,0.1,0.94,0.2,1.71L19.77,54.27z"/>
		<path d="M26.56,59.17c-0.76,0.98-1.62,1.19-2.03,1.19c-1.49,0-2.38-1.2-2.38-2.58c0-0.82,0.31-1.59,0.8-2.11
			c0.51-0.56,1.17-0.87,1.8-0.87c1.07,0,1.86,0.91,1.86,1.88c-0.01,0.23-0.04,0.36-0.22,0.4c-0.24,0.05-1.8,0.15-3.18,0.2
			c-0.02,1.55,0.91,2.2,1.77,2.2c0.49,0,0.95-0.2,1.39-0.6L26.56,59.17z M24.47,55.26c-0.54,0-1.06,0.52-1.21,1.49
			c0.64,0,1.27,0,1.94-0.04c0.21,0,0.28-0.06,0.28-0.24C25.5,55.85,25.11,55.26,24.47,55.26z"/>
		<path d="M36.03,55.28c-0.61,0.1-0.71,0.22-0.96,0.88c-0.36,0.96-0.93,2.59-1.45,4.19h-0.4c-0.47-1.25-0.97-2.48-1.43-3.68
			c-0.45,1.11-0.97,2.39-1.44,3.68h-0.38c-0.44-1.44-0.91-2.86-1.39-4.29c-0.21-0.63-0.31-0.71-0.9-0.78v-0.34h2.59v0.34
			c-0.72,0.12-0.77,0.19-0.61,0.71c0.27,0.9,0.58,1.85,0.85,2.72c0.47-1.19,0.94-2.43,1.39-3.71h0.36c0.44,1.22,0.93,2.48,1.42,3.75
			c0.25-0.71,0.64-1.88,0.85-2.69c0.15-0.59,0.04-0.67-0.78-0.77v-0.34h2.27V55.28z"/>
		<path d="M36.92,60.22v-0.35c0.74-0.07,0.82-0.13,0.82-0.95v-2.45c0-0.75-0.04-0.8-0.73-0.91v-0.31c0.65-0.1,1.25-0.26,1.79-0.47
			c0,0.5,0,1,0,1.51v2.63c0,0.82,0.08,0.88,0.84,0.95v0.35H36.92z M38.2,53.68c-0.36,0-0.68-0.32-0.68-0.67
			c0-0.4,0.32-0.69,0.69-0.69c0.36,0,0.66,0.29,0.66,0.69C38.87,53.36,38.57,53.68,38.2,53.68z"/>
		<path d="M44.4,60.22v-0.35c0.66-0.07,0.73-0.15,0.73-0.97v-1.99c0-0.84-0.32-1.35-1.05-1.35c-0.46,0-0.89,0.26-1.25,0.58v2.82
			c0,0.81,0.07,0.84,0.74,0.91v0.35h-2.63v-0.35c0.76-0.09,0.83-0.13,0.83-0.92v-2.48c0-0.77-0.09-0.8-0.71-0.91v-0.33
			c0.61-0.09,1.24-0.25,1.77-0.48c0,0.26,0,0.65,0,0.93c0.24-0.17,0.5-0.35,0.81-0.54c0.34-0.22,0.64-0.35,0.98-0.35
			c0.96,0,1.56,0.71,1.56,1.88v2.28c0,0.8,0.07,0.84,0.75,0.91v0.35H44.4z"/>
		<path d="M50.08,58.44c-0.26,0.21-0.36,0.43-0.36,0.57c0,0.21,0.21,0.45,0.73,0.45c0.43,0,0.95-0.01,1.35-0.01
			c0.76,0,1.76,0.26,1.76,1.45c0,1.27-1.51,2.42-3.1,2.42c-1.39,0-2.12-0.79-2.14-1.49c0-0.27,0.11-0.49,0.31-0.68
			c0.25-0.25,0.7-0.61,0.97-0.82c-0.44-0.13-0.74-0.4-0.9-0.65c-0.11-0.18-0.16-0.41-0.15-0.54c0.47-0.18,0.9-0.52,1.14-0.84
			L50.08,58.44z M50.65,58.56c-1.16,0-2.08-0.69-2.08-1.81c0-1.35,1.23-1.99,2.19-1.99c0.42,0,0.81,0.11,1.19,0.3
			c0.54,0,1.29-0.09,1.62-0.18L53.64,55c-0.07,0.2-0.26,0.54-0.44,0.66c-0.18,0-0.57-0.05-0.74-0.06c0.2,0.26,0.34,0.64,0.34,1.07
			C52.8,57.95,51.71,58.56,50.65,58.56z M50.91,60.38c-0.59,0-0.86,0.07-1.07,0.25c-0.31,0.26-0.53,0.59-0.53,0.92
			c0,0.66,0.67,1.15,1.61,1.15c1.1,0,1.74-0.56,1.74-1.31c0-0.42-0.21-0.73-0.55-0.87C51.79,60.4,51.4,60.38,50.91,60.38z
			 M50.66,55.16c-0.51,0-0.97,0.48-0.97,1.42c0,0.92,0.44,1.58,1.08,1.58c0.52-0.02,0.95-0.47,0.95-1.42
			C51.72,55.84,51.31,55.16,50.66,55.16z"/>
	</g>
</g>
<rect x="2.64" y="2.64" class="st0" width="64.51" height="64.51"/>
<path d="M41.76,10.3c1.35,0.1,2.59,0.1,3.73,0.41c1.35,0.31,1.76,1.55,1.91,2.69c0.21,0.1,0.21,0.16,0.26,0.16
	c3.05,0.36,3.63,1.04,3.67,4.09c0,0.31,0,0.67,0,0.98c-0.05,2.28-0.83,3.11-3.16,3.42c-0.21,0.05-0.41,0.05-0.72,0.1
	c0,3.47,0,6.89,0,10.41c0.52,0.05,0.98,0.1,1.4,0.21c1.35,0.21,2.23,0.98,2.38,2.33c0.16,1.35,0.05,2.74,0.05,4.2
	c-10.92,0-21.75,0-32.72,0c0-1.5-0.1-2.95,0.05-4.4c0.05-1.24,1.09-2.02,2.33-2.17c0.83-0.05,1.66-0.05,2.48-0.05
	c3.21,0,6.37,0,9.58,0c0.57,0,1.19-0.05,1.86-0.1c0-2.38,0.16-4.61-0.05-6.83c-0.16-1.76-1.5-3.16-3.21-3.26
	c-2.02-0.16-4.04-0.05-6.11-0.05c-0.31,1.29-0.62,2.48-0.93,3.73c-0.72,0.1-1.35,0.16-2.07,0.26c-0.1,0.67-0.16,1.29-0.26,2.02
	c-0.47,0-0.83,0.05-1.35,0.05c-0.05-0.67-0.1-1.29-0.21-2.02c-0.67-0.1-1.35-0.21-2.13-0.36c-0.05-0.47-0.1-0.88-0.1-1.29
	c0-3.63,0-7.25,0-10.87c0-2.33,0.78-3.16,3.05-3.47c0.21-0.05,0.41-0.05,0.78-0.1c0.1-0.62,0.16-1.24,0.26-1.97
	c0.41,0,0.83-0.05,1.29-0.05c0.1,0.67,0.16,1.29,0.21,1.86c1.14,0.36,13.72,0.47,15.84,0.1c0-0.62,0-1.24,0-2.02
	c-0.57-0.1-1.14-0.26-1.71-0.36c-0.16-1.35-0.16-1.41,0.83-1.41c1.4-0.05,2.85,0,4.4,0c0.05,0.52,0.1,0.93,0.16,1.4
	c-0.62,0.1-1.14,0.21-1.81,0.31C41.76,8.85,41.76,9.53,41.76,10.3z M45.64,32.31c0.05-0.62,0.1-1.14,0.1-1.71c0-5.39,0-10.77,0-16.2
	c0-0.31,0-0.67-0.05-0.98c-0.05-0.83-0.52-1.29-1.35-1.4c-0.41-0.05-0.88-0.05-1.29-0.05c-4.04,0-8.02,0-12.06,0
	c-2.95,0-5.95,0-8.9,0c-1.76,0-2.02,0.31-2.07,2.02c0,1.55,0,3.11,0,4.61c0,1.91,0,3.83,0,5.9c1.14,0,2.17,0,3.26,0
	c0.31-1.24,0.57-2.48,0.93-3.83c2.43,0,4.76-0.16,7.09,0.05c3.05,0.21,5.07,2.54,5.18,5.59c0.05,1.55,0,3.11,0,4.61
	c0,0.41,0.1,0.83,0.16,1.29C39.69,32.31,42.59,32.31,45.64,32.31z M49.74,37.69c0-0.78,0.05-1.4,0-1.97
	c-0.1-1.04-0.41-1.35-1.45-1.45c-0.31-0.05-0.67,0-0.98,0c-8.28,0-16.62,0-24.9,0c-2.23,0-2.43,0.21-2.38,2.48
	c0,0.31,0.1,0.62,0.21,0.93C30.01,37.69,39.75,37.69,49.74,37.69z M47.4,20.24c1.86,0.21,2.23-0.1,2.33-1.71
	c0-0.57,0.05-1.09,0-1.66c-0.1-1.55-0.57-1.86-2.33-1.45C47.4,17.03,47.4,18.59,47.4,20.24z"/>
<path d="M37.64,17.91c-0.05,1.55-1.24,2.64-2.79,2.64c-1.5-0.05-2.69-1.29-2.69-2.74c0-1.55,1.4-2.85,2.9-2.74
	C36.55,15.11,37.7,16.41,37.64,17.91z M34.85,16.62c-0.57,0.05-1.14,0.67-1.09,1.24c0.05,0.57,0.62,1.09,1.24,1.09
	c0.62-0.05,1.14-0.57,1.09-1.19C36.04,17.14,35.47,16.62,34.85,16.62z"/>
<path d="M37.64,23.66c0,0.47,0,0.83,0,1.35c-1.76,0-3.47,0-5.33,0c-0.05-0.36-0.1-0.78-0.16-1.35
	C34.02,23.66,35.73,23.66,37.64,23.66z"/>
<path d="M32.29,29.3c-0.05-0.26-0.1-0.47-0.1-0.67c0-0.21,0.05-0.41,0.1-0.72c1.76,0,3.52,0,5.33,0c0,0.47,0,0.88,0,1.4
	C35.86,29.3,34.1,29.3,32.29,29.3z"/>
</svg>
