<?xml version="1.0" encoding="utf-8"?>
<!-- Generator: Adobe Illustrator 23.0.5, SVG Export Plug-In . SVG Version: 6.00 Build 0)  -->
<svg version="1.1" id="Layer_1" xmlns="http://www.w3.org/2000/svg" xmlns:xlink="http://www.w3.org/1999/xlink" x="0px" y="0px"
	 viewBox="0 0 69.8 69.8" style="enable-background:new 0 0 69.8 69.8;" xml:space="preserve">
<style type="text/css">
	.st0{fill:none;stroke:#000000;stroke-miterlimit:10;}
</style>
<g>
	<path d="M56.28,38.33c-0.77,0.06-1.41,0.06-2.05,0.06c-10.18,0-20.35,0-30.6,0c-1.98,0-3.84-0.26-5.63-1.15
		c-2.88-1.54-4.54-3.78-4.48-7.23c0.06-4.03,0.06-8.07,0-12.03c-0.06-3.07,1.34-5.25,3.9-6.72c3.65-2.05,7.43-2.11,11.07-0.13
		c2.69,1.41,4.16,3.65,4.1,6.78c0,1.6,0,3.14,0,4.99c2.75,0.19,5.31,0.06,7.81,0.13c2.62,0,5.31,0,7.94,0c2.56,0,5.12,0,7.81,0
		C56.28,28.21,56.28,33.2,56.28,38.33z M48.21,36.21c-2.69-3.71-2.69-7.3,0.06-11.01c-1.02-0.06-1.73-0.13-2.43-0.13
		c-7.43,0-14.91,0-22.34,0c-2.5,0-4.8-0.58-6.91-1.98c-0.19-0.19-0.51-0.26-0.96-0.38c0,3.01-0.13,5.89,0.06,8.71
		c0.13,1.6,1.15,2.82,2.88,3.65c0.06-1.54,0.13-2.82,0.26-4.29c0.7,0.06,1.28,0.13,2.05,0.19c0,1.86,0,3.46,0,5.18
		c1.09,0,1.86,0,2.94,0c0-1.73,0-3.46,0-5.31c0.83,0.06,1.41,0.06,2.24,0.13c0,1.92,0,3.58,0,5.25c1.09,0,1.92,0,3.01,0
		c0-1.79,0-3.52,0-5.31c0.77,0,1.28,0,2.05,0c0,1.79,0,3.46,0,5.25c1.15,0,1.98,0,3.14,0c0-1.79,0-3.52,0-5.25c0.77,0,1.28,0,2.05,0
		c0,1.79,0,3.46,0,5.25c1.15,0,1.98,0,3.14,0c0-1.86,0-3.52,0-5.25c0.77,0,1.28,0,2.05,0c0,1.79,0,3.52,0,5.31
		C43.86,36.21,45.85,36.21,48.21,36.21z M23.06,23.03c2.18,0.06,4.1-0.58,5.76-2.05c2.3-2.05,2.24-5.06,0-7.11
		c-3.01-2.69-8.51-2.69-11.46,0c-2.3,2.11-2.3,5.06,0,7.11C18.96,22.39,20.95,23.03,23.06,23.03z M54.23,36.08
		c0.13-3.65,0.26-7.3-0.13-10.95c-3.84,0.26-6.02,2.56-5.82,5.95C48.47,34.16,50.97,36.34,54.23,36.08z"/>
	<path d="M23.12,13.87c1.41-0.06,2.69,0.32,3.78,1.22c1.6,1.34,1.66,3.2,0.06,4.61c-1.98,1.73-5.76,1.79-7.75,0.06
		c-1.66-1.41-1.66-3.39,0.06-4.74C20.43,14.13,21.72,13.81,23.12,13.87z M20.24,17.52c1.98,1.73,4.1,1.66,5.63-0.19
		C23.96,15.6,21.78,15.67,20.24,17.52z"/>
</g>
<g>
	<g>
		<path d="M18.67,60.22v-0.36c0.97-0.1,1.01-0.17,1-1.42l0.01-4.85c-0.96,2.17-2.43,5.39-2.93,6.63h-0.33
			c-0.48-1.25-1.74-4.35-2.64-6.51c-0.2,4.12-0.21,5.03-0.21,5.29c0.01,0.67,0.3,0.78,1.13,0.86v0.36h-2.87v-0.36
			c0.69-0.07,0.99-0.21,1.08-0.87c0.07-0.5,0.09-0.97,0.39-5.28c0.05-0.62-0.07-0.84-1.12-0.94v-0.36h2.18l2.59,5.94l2.75-5.94h2.18
			v0.36c-1.02,0.12-1.15,0.22-1.12,1.08l0.06,4.59c0.04,1.25,0.08,1.3,1.12,1.42v0.36H18.67z"/>
		<path d="M27.95,59.17c-0.76,0.98-1.62,1.19-2.03,1.19c-1.49,0-2.38-1.2-2.38-2.58c0-0.82,0.31-1.59,0.8-2.11
			c0.51-0.56,1.17-0.87,1.8-0.87c1.07,0,1.86,0.91,1.86,1.88c-0.01,0.23-0.04,0.36-0.23,0.4c-0.24,0.05-1.8,0.15-3.18,0.2
			c-0.02,1.55,0.91,2.2,1.77,2.2c0.49,0,0.95-0.2,1.39-0.6L27.95,59.17z M25.87,55.26c-0.54,0-1.05,0.52-1.21,1.49
			c0.64,0,1.27,0,1.94-0.04c0.21,0,0.28-0.06,0.28-0.24C26.9,55.84,26.5,55.26,25.87,55.26z"/>
		<path d="M33.31,60.36c-0.21,0-0.47-0.1-0.6-0.23c-0.16-0.15-0.23-0.32-0.29-0.52c-0.48,0.32-1.06,0.75-1.41,0.75
			c-0.88,0-1.49-0.72-1.49-1.49c0-0.6,0.32-0.96,0.97-1.2c0.73-0.25,1.64-0.56,1.9-0.78V56.6c0-0.81-0.39-1.28-1-1.28
			c-0.26,0-0.43,0.13-0.55,0.27c-0.13,0.17-0.21,0.43-0.32,0.78c-0.06,0.22-0.19,0.3-0.38,0.3c-0.24,0-0.56-0.25-0.56-0.54
			c0-0.18,0.15-0.32,0.4-0.5c0.38-0.27,1.08-0.7,1.76-0.84c0.38,0,0.76,0.11,1.05,0.33c0.44,0.36,0.62,0.79,0.62,1.41v2.27
			c0,0.56,0.2,0.72,0.41,0.72c0.14,0,0.29-0.06,0.42-0.13l0.12,0.35L33.31,60.36z M32.4,57.33c-0.25,0.13-0.77,0.36-1.04,0.48
			c-0.44,0.2-0.71,0.43-0.71,0.86c0,0.64,0.48,0.92,0.84,0.92c0.29,0,0.67-0.16,0.9-0.39C32.4,58.64,32.4,57.89,32.4,57.33z"/>
		<path d="M38.76,56.39c-0.23-0.72-0.56-1.18-1.26-1.18c-0.4,0-0.72,0.29-0.72,0.75c0,0.5,0.34,0.74,1,1.04
			c1.02,0.48,1.56,0.85,1.56,1.67c0,1.12-1.03,1.69-2,1.69c-0.62,0-1.19-0.2-1.44-0.34c-0.06-0.33-0.17-1.02-0.21-1.42l0.36-0.06
			c0.22,0.77,0.66,1.4,1.48,1.4c0.46,0,0.81-0.3,0.81-0.78c0-0.51-0.3-0.79-0.95-1.11c-0.83-0.4-1.53-0.79-1.53-1.68
			c0-0.89,0.75-1.57,1.9-1.57c0.52,0,0.93,0.12,1.18,0.16c0.04,0.29,0.12,1.05,0.18,1.35L38.76,56.39z"/>
		<path d="M46.68,59.94c-0.6,0.09-1.27,0.24-1.92,0.42c0-0.2,0-0.61,0-0.9c-0.62,0.52-1.14,0.9-1.8,0.9c-0.84,0-1.51-0.52-1.51-1.78
			v-2.36c0-0.63-0.09-0.7-0.4-0.76l-0.32-0.06v-0.33c0.53-0.02,1.35-0.14,1.81-0.21c-0.03,0.41-0.04,0.99-0.04,1.76v1.65
			c0,1.01,0.52,1.3,1.04,1.3c0.42,0,0.84-0.17,1.22-0.53v-2.81c0-0.63-0.13-0.72-0.52-0.78l-0.38-0.05v-0.33
			c0.75-0.03,1.63-0.16,1.96-0.21v4c0,0.6,0.09,0.7,0.53,0.72l0.32,0.01V59.94z"/>
		<path d="M50.83,60.22H48v-0.35c0.73-0.07,0.8-0.13,0.8-0.9v-2.52c0-0.76-0.05-0.8-0.72-0.89v-0.31c0.62-0.09,1.18-0.24,1.78-0.49
			c0,0.4,0,0.92,0,1.32c0.44-0.66,0.93-1.28,1.51-1.28c0.44,0,0.71,0.28,0.71,0.6c0,0.33-0.23,0.61-0.44,0.72
			c-0.13,0.07-0.23,0.05-0.32-0.03c-0.18-0.18-0.33-0.31-0.54-0.31c-0.24,0-0.66,0.33-0.91,0.92v2.26c0,0.78,0.06,0.83,0.97,0.91
			V60.22z"/>
		<path d="M57.71,59.17c-0.76,0.98-1.62,1.19-2.03,1.19c-1.49,0-2.38-1.2-2.38-2.58c0-0.82,0.31-1.59,0.8-2.11
			c0.51-0.56,1.17-0.87,1.8-0.87c1.07,0,1.86,0.91,1.86,1.88c-0.01,0.23-0.04,0.36-0.23,0.4c-0.24,0.05-1.8,0.15-3.18,0.2
			c-0.02,1.55,0.91,2.2,1.77,2.2c0.49,0,0.95-0.2,1.39-0.6L57.71,59.17z M55.63,55.26c-0.54,0-1.05,0.52-1.21,1.49
			c0.64,0,1.27,0,1.94-0.04c0.21,0,0.28-0.06,0.28-0.24C56.66,55.84,56.26,55.26,55.63,55.26z"/>
	</g>
</g>
<rect x="2.64" y="2.64" class="st0" width="64.51" height="64.51"/>
</svg>
