<?xml version="1.0" encoding="utf-8"?>
<!-- Generator: Adobe Illustrator 23.0.5, SVG Export Plug-In . SVG Version: 6.00 Build 0)  -->
<svg version="1.1" id="Layer_1" xmlns="http://www.w3.org/2000/svg" xmlns:xlink="http://www.w3.org/1999/xlink" x="0px" y="0px"
	 viewBox="0 0 69.8 69.8" style="enable-background:new 0 0 69.8 69.8;" xml:space="preserve">
<style type="text/css">
	.st0{fill:none;stroke:#000000;stroke-miterlimit:10;}
</style>
<g>
	<path d="M21.97,38.3c0-0.48,0-0.87,0-1.4c2.65,0,5.25,0,8.2,0c-0.39-0.48-0.58-0.72-0.72-0.96c-1.4-1.69-2.8-3.33-4.1-5.06
		c-2.75-3.62-4.34-7.76-5.59-12.05c-1.21-3.95,1.49-8,5.54-8.97c6.41-1.49,12.82-1.45,19.24,0.05c4.29,1.01,6.75,5.35,5.45,9.59
		c-1.88,6.22-5.06,11.67-9.5,16.39c-1.25,1.35-2.8,2.31-4.58,2.36C31.28,38.35,26.7,38.3,21.97,38.3z M34.85,9.95
		c-3.09,0.48-6.32,0.82-9.4,1.45c-3.33,0.72-5.16,4.19-4.15,7.52c1.83,6.07,4.87,11.38,9.21,16.01c2.46,2.6,6.36,2.65,8.87,0.05
		c4.39-4.58,7.47-9.88,9.3-15.96c1.01-3.37-0.92-6.89-4.29-7.62C41.21,10.77,38.08,10.44,34.85,9.95z"/>
	<path d="M35.04,15.11c4.1,0.05,7.42,3.42,7.33,7.47c-0.05,4.05-3.52,7.38-7.57,7.28c-4.1-0.1-7.33-3.42-7.28-7.52
		S30.89,15.06,35.04,15.11z M34.94,16.56c-3.33,0-5.93,2.56-5.98,5.83c0,3.28,2.6,5.93,5.88,5.98c3.23,0.05,5.98-2.65,6.03-5.88
		C40.92,19.31,38.22,16.61,34.94,16.56z"/>
	<path d="M34.94,26.39c-2.17,0-3.95-1.78-3.95-3.95s1.83-3.95,4-3.9c2.12,0.05,3.86,1.78,3.9,3.86
		C38.9,24.56,37.11,26.39,34.94,26.39z M34.94,24.9c1.35,0,2.46-1.11,2.41-2.51c-0.05-1.3-1.11-2.36-2.36-2.36
		c-1.35-0.05-2.46,1.06-2.51,2.41C32.44,23.79,33.59,24.9,34.94,24.9z"/>
</g>
<g>
	<g>
		<path d="M26.1,58.27c-0.17,0.58-0.48,1.45-0.66,1.83c-0.34,0.07-1.29,0.29-2.2,0.29c-2.93,0-4.37-1.94-4.37-4
			c0-2.45,1.87-4.14,4.59-4.14c1.03,0,1.89,0.22,2.27,0.28c0.05,0.54,0.13,1.29,0.23,1.88l-0.39,0.08
			c-0.24-0.83-0.54-1.31-1.16-1.56c-0.31-0.14-0.79-0.22-1.22-0.22c-1.94,0-2.95,1.46-2.95,3.42c0,2.29,1.19,3.78,3.08,3.78
			c1.18,0,1.8-0.56,2.42-1.78L26.1,58.27z"/>
		<path d="M31.01,60.22v-0.35c0.67-0.07,0.75-0.14,0.75-0.9v-1.99c0-0.98-0.38-1.45-1.13-1.44c-0.42,0-0.88,0.2-1.2,0.57v2.86
			c0,0.76,0.09,0.83,0.78,0.9v0.35h-2.66v-0.35c0.68-0.06,0.82-0.12,0.82-0.91v-5.74c0-0.62-0.04-0.77-0.82-0.85v-0.33
			c0.68-0.06,1.42-0.24,1.88-0.41c0,0.46,0,0.98,0,1.46v2.56c0.43-0.43,1.08-0.86,1.72-0.86c0.99,0,1.67,0.63,1.67,2.04v2.13
			c0,0.79,0.09,0.84,0.77,0.9v0.35H31.01z"/>
		<path d="M38.87,60.36c-0.21,0-0.47-0.1-0.6-0.23c-0.16-0.15-0.23-0.32-0.29-0.52c-0.48,0.32-1.06,0.75-1.41,0.75
			c-0.88,0-1.49-0.72-1.49-1.49c0-0.6,0.32-0.96,0.97-1.2c0.73-0.25,1.64-0.56,1.9-0.78V56.6c0-0.81-0.39-1.28-1-1.28
			c-0.26,0-0.43,0.13-0.55,0.27c-0.13,0.17-0.21,0.43-0.32,0.78c-0.06,0.22-0.19,0.3-0.38,0.3c-0.24,0-0.56-0.25-0.56-0.54
			c0-0.18,0.15-0.32,0.4-0.5c0.38-0.27,1.08-0.7,1.76-0.84c0.38,0,0.76,0.11,1.05,0.33c0.44,0.36,0.62,0.79,0.62,1.41v2.27
			c0,0.56,0.2,0.72,0.41,0.72c0.14,0,0.29-0.06,0.42-0.13l0.12,0.35L38.87,60.36z M37.95,57.33c-0.25,0.13-0.77,0.36-1.04,0.48
			c-0.44,0.2-0.71,0.43-0.71,0.86c0,0.64,0.48,0.92,0.84,0.92c0.29,0,0.67-0.16,0.9-0.39C37.95,58.64,37.95,57.89,37.95,57.33z"/>
		<path d="M40.97,60.22v-0.35c0.75-0.08,0.84-0.14,0.84-0.92v-5.69c0-0.71-0.06-0.78-0.8-0.89v-0.33c0.68-0.07,1.44-0.26,1.86-0.41
			c0,0.56,0,1.13,0,1.69v5.62c0,0.79,0.07,0.85,0.83,0.92v0.35H40.97z"/>
		<path d="M50.94,60.22c-0.7,0-1.43,0.01-1.71,0.02c-0.07-0.08-1.87-2.31-1.94-2.39c-0.16-0.18-0.23-0.24-0.33-0.25
			c-0.05,0-0.13,0-0.2,0.02v1.32c0,0.8,0.06,0.84,0.82,0.92v0.35h-2.71v-0.35c0.77-0.08,0.83-0.15,0.83-0.92v-5.69
			c0-0.76-0.08-0.79-0.8-0.9v-0.32c0.65-0.06,1.38-0.23,1.86-0.41c0,0.51,0,1,0,1.51v4.17c0.34-0.08,0.57-0.24,0.75-0.43
			c0.28-0.28,0.72-0.82,0.92-1.11c0.23-0.33,0.12-0.43-0.43-0.49v-0.35l2.49-0.11v0.33c-0.82,0.13-1.09,0.24-1.59,0.76
			c-0.22,0.23-0.71,0.79-0.98,1.12c0.25,0.36,1.46,1.77,1.84,2.19c0.54,0.55,0.7,0.6,1.18,0.63V60.22z"/>
	</g>
</g>
<rect x="2.64" y="2.64" class="st0" width="64.51" height="64.51"/>
</svg>
