<?xml version="1.0" encoding="utf-8"?>
<!-- Generator: Adobe Illustrator 23.0.5, SVG Export Plug-In . SVG Version: 6.00 Build 0)  -->
<svg version="1.1" id="Layer_1" xmlns="http://www.w3.org/2000/svg" xmlns:xlink="http://www.w3.org/1999/xlink" x="0px" y="0px"
	 viewBox="0 0 69.8 69.8" style="enable-background:new 0 0 69.8 69.8;" xml:space="preserve">
<style type="text/css">
	.st0{fill:none;stroke:#000000;stroke-miterlimit:10;}
</style>
<g>
	<g>
		<path d="M18.08,55.98c1.17,0.2,2.1,0.76,2.1,1.92c0,0.8-0.46,1.46-1.16,1.84c-0.62,0.35-1.26,0.47-2.11,0.47h-3.02v-0.36
			c1-0.1,1.07-0.2,1.07-1.15v-4.77c0-1-0.12-1.08-1.07-1.17v-0.36h3.23c0.9,0,1.47,0.15,1.87,0.42c0.42,0.29,0.71,0.73,0.71,1.34
			C19.7,55.28,18.77,55.82,18.08,55.98z M16.68,55.83c1.29,0,1.8-0.52,1.8-1.49c0-0.88-0.55-1.48-1.61-1.48
			c-0.33,0-0.54,0.04-0.65,0.12c-0.1,0.07-0.13,0.2-0.13,0.56v2.29H16.68z M16.09,58.68c0,0.86,0.24,1.09,1.05,1.09
			c0.89,0,1.75-0.52,1.75-1.75c0-1.21-0.81-1.74-2.26-1.74h-0.55V58.68z"/>
		<path d="M27.6,59.94c-0.6,0.09-1.27,0.24-1.92,0.42c0-0.2,0-0.61,0-0.9c-0.62,0.52-1.14,0.9-1.8,0.9c-0.84,0-1.51-0.52-1.51-1.78
			v-2.36c0-0.63-0.09-0.7-0.4-0.76l-0.32-0.06v-0.33c0.53-0.02,1.35-0.14,1.81-0.21c-0.03,0.41-0.04,0.99-0.04,1.76v1.65
			c0,1.01,0.52,1.3,1.04,1.3c0.42,0,0.84-0.17,1.22-0.53v-2.81c0-0.63-0.13-0.72-0.52-0.78l-0.38-0.05v-0.33
			c0.75-0.03,1.63-0.16,1.96-0.21v4c0,0.6,0.09,0.7,0.53,0.72l0.32,0.01V59.94z"/>
		<path d="M31.31,60.21c-0.2,0.11-0.4,0.15-0.51,0.15c-0.8,0-1.23-0.46-1.23-1.44v-3.46h-0.82l-0.05-0.14l0.33-0.37h0.54v-1
			c0.26-0.25,0.65-0.57,0.91-0.82l0.17,0.04c-0.02,0.47-0.04,1.16-0.03,1.79h1.34c0.11,0.12,0.07,0.4-0.08,0.51h-1.26v3.05
			c0,0.96,0.38,1.13,0.68,1.13c0.27,0,0.53-0.1,0.7-0.18l0.11,0.33L31.31,60.21z"/>
		<path d="M35.75,60.21c-0.2,0.11-0.4,0.15-0.51,0.15c-0.8,0-1.23-0.46-1.23-1.44v-3.46h-0.82l-0.05-0.14l0.33-0.37h0.54v-1
			c0.26-0.25,0.65-0.57,0.91-0.82l0.18,0.04c-0.02,0.47-0.04,1.16-0.03,1.79h1.34c0.11,0.12,0.07,0.4-0.08,0.51h-1.26v3.05
			c0,0.96,0.38,1.13,0.68,1.13c0.27,0,0.53-0.1,0.7-0.18l0.11,0.33L35.75,60.21z"/>
		<path d="M40.55,54.8c1.53,0,2.64,1.16,2.64,2.69c0,1.94-1.43,2.87-2.65,2.87c-1.68,0-2.7-1.34-2.7-2.69
			C37.84,55.73,39.36,54.8,40.55,54.8z M40.4,55.22c-0.69,0-1.32,0.68-1.32,2.08c0,1.52,0.64,2.63,1.58,2.63
			c0.69,0,1.29-0.5,1.29-2.16C41.95,56.32,41.4,55.22,40.4,55.22z"/>
		<path d="M48.18,60.22v-0.35c0.66-0.07,0.73-0.15,0.73-0.97v-1.99c0-0.84-0.32-1.35-1.05-1.35c-0.46,0-0.89,0.26-1.25,0.58v2.82
			c0,0.81,0.07,0.84,0.74,0.91v0.35h-2.63v-0.35c0.76-0.09,0.83-0.13,0.83-0.92v-2.48c0-0.77-0.09-0.8-0.71-0.91v-0.33
			c0.61-0.09,1.24-0.25,1.77-0.48c0,0.26,0,0.65,0,0.93c0.24-0.17,0.5-0.35,0.81-0.54c0.34-0.22,0.64-0.35,0.98-0.35
			c0.96,0,1.56,0.71,1.56,1.88v2.28c0,0.8,0.07,0.84,0.75,0.91v0.35H48.18z"/>
		<path d="M55.3,56.39c-0.23-0.72-0.56-1.18-1.26-1.18c-0.4,0-0.72,0.29-0.72,0.75c0,0.5,0.34,0.74,1,1.04
			c1.02,0.48,1.56,0.85,1.56,1.67c0,1.12-1.03,1.69-2,1.69c-0.62,0-1.19-0.2-1.44-0.34c-0.06-0.33-0.17-1.02-0.21-1.42l0.36-0.06
			c0.22,0.77,0.66,1.4,1.48,1.4c0.46,0,0.81-0.3,0.81-0.78c0-0.51-0.3-0.79-0.95-1.11c-0.83-0.4-1.53-0.79-1.53-1.68
			c0-0.89,0.75-1.57,1.9-1.57c0.52,0,0.93,0.12,1.18,0.16c0.04,0.29,0.12,1.05,0.18,1.35L55.3,56.39z"/>
	</g>
</g>
<rect x="2.64" y="2.64" class="st0" width="64.51" height="64.51"/>
<g>
	<path d="M34.8,40.8c-8.8,0-15.88-7.18-15.82-16.03C19.02,16.12,26.25,8.94,34.95,9s15.82,7.18,15.88,15.88
		C50.83,33.67,43.6,40.85,34.8,40.8z M34.9,39.28c7.91,0,14.3-6.39,14.36-14.36c0-7.81-6.44-14.3-14.36-14.36
		s-14.41,6.44-14.36,14.41C20.54,32.89,26.99,39.28,34.9,39.28z"/>
	<path d="M47.42,24.92c0,6.97-5.61,12.63-12.52,12.63s-12.63-5.66-12.63-12.57c-0.05-6.92,5.61-12.57,12.57-12.57
		C41.82,12.35,47.42,17.9,47.42,24.92z M45.9,25.08c0.05-6.18-4.77-11.16-10.9-11.21c-6.13-0.05-11.16,4.82-11.21,10.95
		c-0.05,6.08,4.98,11.16,11.06,11.21C40.87,36.03,45.85,31.11,45.9,25.08z"/>
	<path d="M33.12,21.62c0,0.84-0.58,1.52-1.41,1.57c-0.84,0.05-1.68-0.68-1.68-1.52s0.73-1.62,1.62-1.57
		C32.44,20.1,33.07,20.73,33.12,21.62z"/>
	<path d="M39.72,28.28c-0.05,0.84-0.73,1.52-1.52,1.52c-0.84,0-1.62-0.79-1.57-1.62c0.05-0.89,0.79-1.57,1.68-1.47
		C39.14,26.76,39.77,27.44,39.72,28.28z"/>
	<path d="M39.72,21.57c0.05,0.84-0.58,1.52-1.41,1.62c-0.89,0.05-1.68-0.63-1.68-1.52c-0.05-0.89,0.68-1.62,1.57-1.62
		C39.04,20.1,39.67,20.73,39.72,21.57z"/>
	<path d="M31.6,26.71c0.84,0,1.47,0.63,1.52,1.52c0,0.89-0.73,1.62-1.57,1.62c-0.79-0.05-1.52-0.73-1.52-1.52
		C29.98,27.44,30.71,26.71,31.6,26.71z"/>
</g>
</svg>
