<?xml version="1.0" encoding="utf-8"?>
<!-- Generator: Adobe Illustrator 25.0.0, SVG Export Plug-In . SVG Version: 6.00 Build 0)  -->
<svg version="1.1" id="Layer_1" xmlns="http://www.w3.org/2000/svg" xmlns:xlink="http://www.w3.org/1999/xlink" x="0px" y="0px"
	 viewBox="0 0 69.8 69.8" style="enable-background:new 0 0 69.8 69.8;" xml:space="preserve">
<path d="M60.9,5.1c-0.3,5-2.4,8.5-6.4,10.7c-1.3,0.7-1.8,1.5-1.8,3c0.1,7.9,0,15.8,0,23.8c0,0.7,0.2,1.3,0.3,2.1
	c3.1,0.2,5.1-1.3,6.3-3.7c0.8-1.5,1.6-2.1,3.5-1.2c-1.3,5.2-4.9,7.6-10,8.2c0,1.7,0,3.1,0,4.7c4.7,2.2,7.8,5.7,8,11.3
	c-17.1,0-33.9,0-51.1,0c0.4-4.7,2.3-8.2,6.3-10.2c2-1,2.5-2.3,2.5-4.4c-0.1-9.8,0-19.6,0-29.4c0-1,0-2,0-3
	c-5.4-2.2-8.4-5.9-8.7-11.8C26.9,5.1,43.7,5.1,60.9,5.1z M13.4,8c1.7,4.4,4.3,6.2,8.7,6.2c8.2,0,16.4,0,24.6,0c1.1,0,2.2,0,3.3-0.1
	c3.6-0.4,6.3-2.6,7.1-6.2C42.6,8,28.1,8,13.4,8z M13.3,61c4.9,0.6,41.7,0.4,43.8-0.3C57,60.4,57,60,56.8,59.6
	c-2-3.3-4.9-4.7-8.7-4.7c-8.1,0-16.2,0-24.3,0c-1.1,0-2.2,0-3.3,0.1C17.1,55.7,14.8,57.5,13.3,61z M49.6,32.6c-9.4,0-18.7,0-28,0
	c0,1.6,0,3,0,4.3c3.9,0.6,25.8,0.5,28-0.2C49.6,35.5,49.6,34.3,49.6,32.6z M49.6,24.8c-9.6,0.1-18.8-0.1-28,0.1c0,1.8,0,3.1,0,4.5
	c9.4,0,18.6,0,28,0C49.6,27.8,49.6,26.5,49.6,24.8z M49.5,17.3c-9.3,0-18.6,0-27.9,0c0,1.6,0,3,0,4.7c9.5-0.1,18.7,0.1,28.1-0.1
	c0-1.2,0-2.1,0-3C49.7,18.4,49.6,17.9,49.5,17.3z M21.6,44.9c9.4,0,18.7,0,28,0c0-1.8,0-3.1,0-4.6c-9.4,0-18.7,0-28,0
	C21.6,41.9,21.6,43.2,21.6,44.9z M21.6,51.9c9.4,0,18.6,0,27.9,0c0-1.4,0-2.6,0-3.8c-4.2-0.6-25.8-0.4-27.9,0.2
	C21.6,49.4,21.6,50.6,21.6,51.9z"/>
</svg>
