<?xml version="1.0" encoding="utf-8"?>
<!-- Generator: Adobe Illustrator 25.0.0, SVG Export Plug-In . SVG Version: 6.00 Build 0)  -->
<svg version="1.1" id="Layer_1" xmlns="http://www.w3.org/2000/svg" xmlns:xlink="http://www.w3.org/1999/xlink" x="0px" y="0px"
	 viewBox="0 0 69.8 69.8" style="enable-background:new 0 0 69.8 69.8;" xml:space="preserve">
<path d="M20.8,9.4c1,0.4,1.7,0.7,2.7,1.2C19,23.1,14.5,35.5,10,48c7.5-0.4,10.9,1.2,13.8,8.8c2.1-1.2,22.4-21.4,25.4-25.3
	c-4.9-4.9-9.8-9.9-14.6-14.7c3.8-3.9,7.1-7.9,11-11.3c5.5-4.8,13.8-4,18.9,1.2c5,5.2,5.4,13.5,0.5,18.9c-3.3,3.7-7.1,6.9-10.8,10.5
	c-0.7-0.5-1.5-1.2-2.6-2c-0.9,0.9-1.8,1.7-2.6,2.5c-8.6,8.6-17.1,17.2-25.7,25.8c-1.2,1.2-2.3,2.4-3.6,3.4c-3.5,2.9-8.4,3.1-12,0.6
	C4,63.9,2.3,59.2,3.9,54.8C9.2,40.3,14.6,25.7,20,11.1C20.1,10.6,20.4,10.2,20.8,9.4z M44,22.2c3.8-1.1,4.5-3.1,4.4-6
	c-0.1-3.4,2.9-5.9,6.3-5.7c3.3,0.2,5.7,2.8,5.7,6.1c0,3.4-2.6,6.1-6.1,6c-0.9,0-1.7-0.2-2.6-0.5c-1.6-0.4-2.3,0.7-2.8,1.7
	c-0.4,0.6-0.6,1.9-0.3,2.3c1.8,2,3.4,4.2,5.9,5.6c2.8-2.8,5.6-5.3,8-8.1c3.8-4.3,3.5-10.6-0.4-14.7c-3.8-4-10.1-4.7-14.4-1.1
	c-3.1,2.6-5.6,5.8-8.5,8.9c0.2,0.2,0.5,0.7,0.8,1.1C41.5,19.3,42.8,20.8,44,22.2z M13.5,51.1c-3.7,0-6.9,3.2-6.9,7
	c0,3.8,3.1,7,6.9,7c3.8,0,7-3.1,7-6.9C20.4,54.4,17.2,51.1,13.5,51.1z M54.2,19.4c1.7,0.1,3-1.2,3-2.8c0-1.6-1.1-2.8-2.6-2.9
	c-1.7-0.1-3,1-3.1,2.7C51.4,18,52.6,19.3,54.2,19.4z"/>
</svg>
