<?xml version="1.0" encoding="utf-8"?>
<!-- Generator: Adobe Illustrator 23.0.5, SVG Export Plug-In . SVG Version: 6.00 Build 0)  -->
<svg version="1.1" id="Layer_1" xmlns="http://www.w3.org/2000/svg" xmlns:xlink="http://www.w3.org/1999/xlink" x="0px" y="0px"
	 viewBox="0 0 69.8 69.8" style="enable-background:new 0 0 69.8 69.8;" xml:space="preserve">
<path d="M32.26,48.85c0-2.36,0-4.55,0-6.99c-0.87-0.17-1.75-0.44-2.71-0.61c-0.17-0.79-0.26-1.66-0.44-2.62c-2.36,0-4.63,0-7.17,0
	c-0.87,2.27-2.19,4.63-4.89,5.42c-1.57,0.44-3.41,0.52-4.98,0.17c-3.32-0.7-5.51-4.2-5.33-7.69c0.17-3.23,2.62-6.12,5.77-6.82
	c4.02-0.87,6.99,0.87,9.53,5.94c0.96,0,2.19,0,3.32,0c1.14,0,2.36,0,3.85,0c0.09-1.31,0.17-2.36,0.17-3.41
	c0-6.12-0.09-12.32,0.09-18.44c0.09-4.63,3.32-8.22,7.78-8.74c0.26,0,0.61,0.09,1.14,0.17c0,9,0,18.01,0,27.27
	c9.27,0,18.27,0,27.18,0c0.44,4.81-3.15,8.74-8.04,9c-3.41,0.17-6.73,0.09-10.14,0.09c-2.97,0-5.94,0-8.92,0
	c-0.96,0-1.92,0.09-3.06,0.17c0,2.45,0,4.72,0,7.25c0.52,0.26,1.22,0.61,1.92,0.96c3.15,1.84,4.63,5.16,3.76,8.57
	c-0.79,3.23-3.85,5.59-7.25,5.59s-6.47-2.27-7.34-5.42c-0.96-3.58,0.52-6.99,3.85-8.83C30.95,49.46,31.56,49.2,32.26,48.85z
	 M35.23,8.64c-2.19,1.57-3.06,3.15-3.06,5.16c0,7.95,0,15.91,0,23.77c0,0.26,0.17,0.52,0.35,0.96c0.79,0,1.66-0.09,2.62-0.09
	C35.23,28.57,35.23,18.87,35.23,8.64z M38.38,56.45c0-2.62-2.1-4.63-4.81-4.63c-2.53,0.09-4.46,2.01-4.46,4.55
	c0,2.62,2.01,4.72,4.63,4.72C36.37,61.17,38.47,59.07,38.38,56.45z M18.89,36.87c-0.09-2.62-2.19-4.63-4.89-4.55
	c-2.62,0.09-4.63,2.27-4.46,4.89c0.17,2.53,2.19,4.37,4.72,4.37C16.97,41.59,18.98,39.58,18.89,36.87z M61.89,35.91
	c-3.15-0.79-22.55-0.7-23.6,0.17c0.09,0.7,0.17,1.57,0.26,2.53c6.47,0,12.76,0.09,18.97,0C59.27,38.53,60.84,37.57,61.89,35.91z"/>
</svg>
