<?xml version="1.0" encoding="utf-8"?>
<!-- Generator: Adobe Illustrator 25.0.0, SVG Export Plug-In . SVG Version: 6.00 Build 0)  -->
<svg version="1.1" id="Layer_1" xmlns="http://www.w3.org/2000/svg" xmlns:xlink="http://www.w3.org/1999/xlink" x="0px" y="0px"
	 viewBox="0 0 69.8 69.8" style="enable-background:new 0 0 69.8 69.8;" xml:space="preserve">
<path d="M54,52.7c0,4.4,0,8.8,0,13.3c-13.7,0-27.1,0-40.9,0c0-4.5,0-9,0-13.7c-2.6-0.1-4.7-0.3-7-0.4c-0.1-0.9-0.2-1.7-0.3-2.8
	c2.4-0.1,4.6-0.2,7-0.4c0-4.1,0-8.1,0-12.3c-2.3,0-4.4,0-6.8,0c-0.1-1.1-0.1-1.9-0.2-3c2.4-0.1,4.6-0.2,7-0.3c0-3.9,0-7.6,0-11.7
	c-2.3,0-4.4,0-6.7,0c-0.1-1.1-0.2-1.9-0.4-3c2.4-0.1,4.6-0.3,7.1-0.4c0-4.7,0-9.3,0-13.8c2.6-0.8,36.6-1,41-0.3
	c0.5,4.5,0,9.1,0.4,14.3c1-1.3,1.5-2,2.1-2.7c2.1-2.2,5.3-2.4,7.6-0.4c2.2,2,2.4,5.4,0.5,7.6c-1.9,2.2-5.2,2.5-7.6,0.6
	c-0.7-0.6-1.3-1.3-2.5-2.4c-0.5,4.4-0.2,8.1-0.2,12.3c4.6-4.4,7.4-4.9,10-2.2c2.1,2.2,2,5.8-0.3,7.8c-2.6,2.4-5.8,1.6-9.1-2.1
	c-0.9,1.8-1.1,7.3-0.4,11.9c0.7-0.7,1.2-1.3,1.8-1.8c2.3-2.3,5.6-2.5,7.8-0.3c2.2,2.1,2.2,5.7,0,7.8c-2.2,2.1-5.6,1.9-7.8-0.4
	c-0.5-0.5-0.9-1.1-1.4-1.6C54.6,52.6,54.3,52.6,54,52.7z M50.7,18c0-3.7,0-7.3,0-10.8c-3.3-0.7-31.8-0.6-34.6,0.1
	c0.1,3.5-0.3,7.1,0.2,10.6c2.6,0,4.8,0,7,0c0.2-1.5,0.3-2.8,0.5-4.2c1,0.1,1.8,0.2,2.5,0.2c0.7,5.7,0.5,41.1-0.4,42
	c-0.6,0-1.3-0.1-2.1-0.1c-0.2-1.2-0.4-2.2-0.6-3.4c-2.4,0-4.6,0-7,0c0,3.6,0,6.9,0,10.4c11.6,0,22.9,0,34.4,0c0-3.6,0-7,0-10.7
	c-1.8,0-3.3,0-4.8,0c-0.7,0-1.5,0.2-2.3,0.3c-0.2,1.2-0.3,2.2-0.5,3.4c-0.9,0-1.7,0-2.7,0c0-14.1,0-27.9,0-41.9c1,0,1.8,0,2.7,0
	c0.2,1.4,0.3,2.7,0.4,4.1C46,18,48.3,18,50.7,18z M43.6,36.6c0,4.3,0,8.1,0,12.1c2.5,0,4.7,0,7.2,0c0.2-4.2,0.2-8.1,0-12.1
	C48.2,36.6,46,36.6,43.6,36.6z M50.9,33.1c0.2-3.9,0.2-7.7,0-11.5c-2.6,0-4.8,0-7.2,0c0,3.9,0,7.6,0,11.5
	C46.1,33.1,48.3,33.1,50.9,33.1z M23.3,48.8c0-4.2,0-8.1,0-12.2c-2.4,0-4.6,0-7,0c0,4.1,0,8.1,0,12.2C18.7,48.8,20.8,48.8,23.3,48.8
	z M23.4,21.6c-2.6,0-4.8,0-7,0c0,4,0,7.7,0,11.5c2.4,0,4.6,0,7,0C23.4,29.2,23.4,25.5,23.4,21.6z M62.6,19.3c0-1.2-1-2.3-2.2-2.4
	c-1.2-0.1-2.3,1-2.3,2.2c0,1.3,0.9,2.3,2.1,2.4C61.4,21.5,62.5,20.5,62.6,19.3z M62.6,35c0.1-1.2-1-2.3-2.1-2.4
	c-1.1-0.1-2.3,1-2.3,2.2c-0.1,1.3,0.8,2.3,2.1,2.3C61.4,37.2,62.5,36.2,62.6,35z M60.3,52.8c1.2,0,2.3-1,2.3-2.2
	c0-1.2-1-2.2-2.2-2.3c-1.2,0-2.2,1-2.2,2.2C58.1,51.8,59,52.8,60.3,52.8z"/>
</svg>
