<?xml version="1.0" encoding="utf-8"?>
<!-- Generator: Adobe Illustrator 25.0.0, SVG Export Plug-In . SVG Version: 6.00 Build 0)  -->
<svg version="1.1" id="Layer_1" xmlns="http://www.w3.org/2000/svg" xmlns:xlink="http://www.w3.org/1999/xlink" x="0px" y="0px"
	 viewBox="0 0 69.8 69.8" style="enable-background:new 0 0 69.8 69.8;" xml:space="preserve">
<path d="M38,59c0,1.8,0,3,0,4.7c3,0,5.7,0,8.5,0c0.9,0,1.7,0,2.6,0.2c0.4,0.1,0.9,0.8,0.8,1.2c-0.1,0.5-0.6,1-1,1.5
	c-0.2,0.2-0.6,0.2-0.9,0.2c-3.7,0-7.3,0-11,0c-1.4,0-2.2-0.7-2.3-2.1c0-0.5-0.2-1-0.3-1.8c-1.9,0-3.7,0-5.6,0c-1.2,0-2.4,0-3.6,0
	c-1.2,0-2.6,0-2.6-1.6c0.1-1.4,1.3-1.5,2.5-1.5c1.9,0,3.9,0,5.8,0c1.1,0,2.1,0,3.5,0c0-1.8,0-3.3,0-5.1c-3-0.7-6.1-1.3-9.3-2
	c-4.9-1.1-6.2-3.2-5.3-8.1c0.7-3.9,1.6-7.8,2.2-11.8c0.3-1.9,0.2-3.9-0.2-5.7c-0.9-4-1.9-8-3.1-11.9c-0.6-2-0.3-3.5,1-5.1
	c1.5-1.8,3-3.7,4.4-5.6c1-1.4,2.4-2.1,4.1-2.1c5.4,0,10.8,0,16.2,0c1.6,0,2.9,0.6,3.9,1.9c1.6,2.1,3.1,4.1,4.8,6.1
	c1.1,1.4,1.3,2.8,0.8,4.5c-1.2,4.3-2.3,8.5-3.3,12.8c-0.3,1.3-0.3,2.8-0.1,4.1c0.7,4.5,1.6,8.9,2.4,13.4c0.7,4-0.8,6.4-4.8,7.3
	c-2.7,0.6-5.5,1.2-8.2,1.8c-0.6,0.1-1.2,0.3-2.4,0.7c1.1,0.5,1.6,0.9,2,0.9c2.3,0.1,4.5,0,6.8,0c0.8,0,1.6-0.1,2.2,0.1
	c0.6,0.2,1.4,0.9,1.4,1.4c0,0.5-0.7,1.3-1.3,1.5C47.8,59.1,46.9,59,46,59C43.5,59,40.9,59,38,59z M31.4,17.8
	C30,18,29.1,18.2,28,18.4c-0.5,2.7-1,5.4-1.5,8c-1.2,6.1-2.4,12.3-3.5,18.4c-0.6,3.3-0.1,3.8,3,4.8c7.2,2.2,14.2,2,21.3-0.2
	c2.5-0.7,2.9-1.4,2.5-4c-0.5-3-1.1-5.9-1.6-8.9c-1.1-6-2.3-12-3.5-18.3c-1.1-0.1-2.1-0.3-3.3-0.4c-0.1,1.2-0.2,2-0.2,2.9
	c0,2.6,0.1,5.2-0.1,7.8c-0.2,3-2.3,4.8-5.1,4.6c-2.6-0.1-4.4-2-4.6-4.9C31.4,24.9,31.4,21.6,31.4,17.8z M31.1,14.1
	c0.9-4,2.4-5.6,5.1-5.6c2.7-0.1,4,1.3,5.4,5.7c5.2,1.9,5.2,1.9,7.4,7.1c0.7-2.9,1.8-5.3,1.8-7.6c0-3.1-3.1-4.7-4.6-7.2
	c-0.7-1.2-1.9-1.2-3.1-1.2c-0.5,0-1.1,0-1.6,0c-2.4,0-4.7,0-7.1,0c-7.7,0-7.7,0-12,6.3c-0.1,0.2-0.3,0.3-0.4,0.5
	c-0.1,0.6-0.4,1.3-0.3,1.8c0.5,2.3,1.2,4.5,2,7.2c0.8-2,1.1-4,2.2-5C27.1,15.2,29.2,14.9,31.1,14.1z M38.1,21.1c0-2.4,0-4.7,0-7.1
	c0-1.2-0.4-2.2-1.8-2.2c-1.1,0-1.7,0.9-1.7,2c0,4.7,0,9.5,0,14.2c0,1.2,0.6,2.1,2,2c1.3-0.1,1.5-1.1,1.5-2.1
	C38.1,25.6,38.1,23.3,38.1,21.1z"/>
<path d="M36.8,36.2c1.9,0,3.9,0,5.8,0c2.6,0,3.6,0.8,4.1,3.2c0.4,1.8,0.6,3.6,0.8,5.4c0.2,1.5-0.3,2.4-2,2.6
	c-6.1,0.8-12.2,0.9-18.3,0c-2.1-0.3-2.3-0.7-2-2.8c0.2-1.6,0.5-3.2,0.8-4.8c0.6-3.1,1.3-3.6,4.6-3.6C32.7,36.3,34.8,36.2,36.8,36.2
	C36.8,36.2,36.8,36.2,36.8,36.2z M28.6,44.2c4.4,1.2,12.6,1.1,15.6-0.3c-0.2-1.4-0.5-2.8-0.8-4.5c-4.1,0-8.1,0-12,0
	c-0.6,0-1.3,0.1-2.2,0.2C29,41.2,28.8,42.7,28.6,44.2z"/>
</svg>
