<?xml version="1.0" encoding="utf-8"?>
<!-- Generator: Adobe Illustrator 25.0.0, SVG Export Plug-In . SVG Version: 6.00 Build 0)  -->
<svg version="1.1" id="Layer_1" xmlns="http://www.w3.org/2000/svg" xmlns:xlink="http://www.w3.org/1999/xlink" x="0px" y="0px"
	 viewBox="0 0 69.8 69.8" style="enable-background:new 0 0 69.8 69.8;" xml:space="preserve">
<path d="M30.9,62.9c0-2,0-3.6,0-5.5c-3.9,0-7.6,0-11.5,0c-0.2-4.9,1.1-9.1,3.9-12.5c1.7-2,1.6-3.7,0.8-5.9c-1.1-2.8-2.1-5.7-3-8.5
	c-0.5-1.6-1.4-2.4-3.1-2.6c-1.9-0.3-3.9-0.9-5.8-1.2c-1.2-0.2-1.8-0.8-2.2-1.9c-1-2.7-2-5.5-3.1-8.5c7.1-2,14.1-3.9,21.2-5.9
	c0.1-2.1,0.2-4,0.3-5.9c2.4-0.7,12.5-0.8,15.8-0.1c0,1.9,0,3.8,0,6c7.2,2,14.2,4,21.5,6c-1.2,3.2-2.2,6.1-3.4,8.9
	c-0.3,0.6-1.1,1.2-1.8,1.4c-2.1,0.6-4.3,1-6.4,1.4c-1.1,0.2-1.9,0.6-2.3,1.8c-1.4,4.2-2.9,8.4-4.4,12.7c3.8,4.2,5.8,8.9,5.9,14.9
	c-3.8,0-7.5,0-11.5,0c0,2,0,3.6,0,5.5c3.6,0,7.3,0,11.3,0c0.1,1.2,0.1,2,0.2,3c-11.4,0-22.5,0-33.7,0c-0.1-0.3-0.4-0.5-0.4-0.8
	c0-0.6,0.1-1.2,0.2-2.1C23.3,62.9,27,62.9,30.9,62.9z M22.7,54.1c9.1,0,18.1,0,27.2,0c-0.1-0.7,0-1.3-0.2-1.7
	c-0.8-3-2.2-5.6-4.5-7.7c-1-0.9-1.2-1.8-0.8-3.1c1.7-4.8,3.3-9.6,5.1-14.4c0.3-0.7,1.2-1.4,1.9-1.7c2.1-0.6,4.3-0.9,6.4-1.5
	c0.7-0.2,1.7-0.6,2-1.2c0.7-1.4,1.1-3,1.7-4.7c-7.1-2-13.8-3.8-20.6-5.7c0-2,0-3.6,0-5.5c-3.3,0-6.4,0-9.6,0c-0.2,2-0.4,3.8-0.5,5.6
	c-6.8,1.9-13.4,3.7-20.1,5.6c0.4,1.2,0.7,1.9,0.8,2.7c0.4,2.1,1.8,3.1,3.9,3.4c1.7,0.2,3.4,0.8,5.2,1.1c1.1,0.2,1.8,0.7,2.2,1.8
	c1.8,5.3,3.7,10.6,5.6,15.9C25.6,46.2,23,49.4,22.7,54.1z M38.3,62.7c0-1.9,0-3.6,0-5.2c-1.5,0-2.7,0-4,0c0,1.9,0,3.6,0,5.2
	C35.8,62.7,37,62.7,38.3,62.7z"/>
</svg>
