<?xml version="1.0" encoding="utf-8"?>
<!-- Generator: Adobe Illustrator 23.0.5, SVG Export Plug-In . SVG Version: 6.00 Build 0)  -->
<svg version="1.1" id="Layer_1" xmlns="http://www.w3.org/2000/svg" xmlns:xlink="http://www.w3.org/1999/xlink" x="0px" y="0px"
	 viewBox="0 0 69.8 69.8" style="enable-background:new 0 0 69.8 69.8;" xml:space="preserve">
<style type="text/css">
	.st0{fill:none;stroke:#000000;stroke-miterlimit:10;}
</style>
<g>
	<g>
		<path d="M23.33,60.22v-0.36c0.97-0.1,1.07-0.16,1.07-1.17v-4.73c0-1.03-0.1-1.08-1.07-1.19v-0.36h3.3v0.36
			c-0.98,0.1-1.08,0.16-1.08,1.19v4.73c0,1.02,0.1,1.07,1.08,1.17v0.36H23.33z"/>
		<path d="M31.1,60.22h-2.83v-0.35c0.73-0.07,0.8-0.13,0.8-0.9v-2.52c0-0.76-0.05-0.8-0.72-0.89v-0.31
			c0.62-0.09,1.18-0.24,1.78-0.49c0,0.4,0,0.92,0,1.32c0.44-0.66,0.93-1.28,1.51-1.28c0.44,0,0.71,0.28,0.71,0.6
			c0,0.33-0.23,0.61-0.44,0.72c-0.13,0.07-0.23,0.05-0.32-0.03c-0.18-0.18-0.33-0.31-0.54-0.31c-0.24,0-0.66,0.33-0.91,0.92v2.26
			c0,0.78,0.06,0.83,0.97,0.91V60.22z"/>
		<path d="M36.28,54.8c1.53,0,2.64,1.16,2.64,2.69c0,1.94-1.43,2.87-2.65,2.87c-1.68,0-2.7-1.34-2.7-2.69
			C33.58,55.74,35.1,54.8,36.28,54.8z M36.14,55.22c-0.69,0-1.32,0.68-1.32,2.08c0,1.52,0.64,2.63,1.58,2.63
			c0.69,0,1.29-0.5,1.29-2.16C37.69,56.32,37.14,55.22,36.14,55.22z"/>
		<path d="M43.91,60.22v-0.35c0.66-0.07,0.73-0.15,0.73-0.97v-1.99c0-0.84-0.32-1.35-1.05-1.35c-0.46,0-0.89,0.26-1.25,0.58v2.82
			c0,0.81,0.07,0.84,0.74,0.91v0.35h-2.63v-0.35c0.76-0.09,0.83-0.13,0.83-0.92v-2.48c0-0.77-0.09-0.8-0.71-0.91v-0.33
			c0.61-0.09,1.24-0.25,1.77-0.48c0,0.26,0,0.65,0,0.93c0.24-0.17,0.5-0.35,0.81-0.54c0.34-0.22,0.64-0.35,0.98-0.35
			c0.96,0,1.56,0.71,1.56,1.88v2.28c0,0.8,0.07,0.84,0.75,0.91v0.35H43.91z"/>
	</g>
</g>
<rect x="2.64" y="2.64" class="st0" width="64.51" height="64.51"/>
<g>
	<path d="M41.44,23.07c0-2.57,0-4.86,0-7.26c-0.78-0.06-1.45-0.11-2.12-0.11c-2.74,0-5.48,0-8.16,0c-2.57-0.06-4.08-1.29-4.02-3.3
		c0.06-1.9,1.51-3.13,3.97-3.13c4.58-0.06,9.11,0,13.69,0c4.3-0.06,7.26,3.02,7.1,7.15c-0.06,1.84,0,3.69,0,5.53
		c0,0.78,0.11,1.45,0.84,1.96c0.84,0.61,1.12,1.51,1.17,2.51c0,4.58,0,9.11-0.06,13.69c0,0.11-0.11,0.22-0.22,0.45
		c-12.4,0-24.86,0-37.32,0c-2.18-10.62,4.86-17.32,12.4-17.38c3.46-0.06,6.98,0,10.45,0C39.88,23.07,40.55,23.07,41.44,23.07z
		 M43.62,28.65c2.91-0.22,5.59,0.11,8.33-0.22c0.06-0.61,0.11-1.06,0.11-1.45c-0.06-1.62-0.45-2.07-2.01-2.07
		c-7.21,0-14.42-0.06-21.68,0.06c-4.47,0.06-8.44,3.13-9.89,7.38c-0.17,0.5-0.28,1.06-0.39,1.79c11.34,0,22.52,0,33.69,0
		c0.45-1.79,0.39-2.18-0.17-3.74c-2.63,0-5.31,0-8.1,0C43.57,29.66,43.57,29.27,43.62,28.65z M49.94,22.9
		c0-2.79,0.11-5.36-0.06-7.93c-0.11-1.96-1.45-3.18-3.35-3.69c-0.61-0.17-1.23-0.22-1.9-0.22c-4.41,0-8.88,0-13.3,0
		c-0.45,0-0.89,0-1.34,0.11c-0.67,0.17-1.17,0.67-1.01,1.34c0.11,0.45,0.61,0.95,1.06,1.17c0.39,0.22,1.01,0.11,1.51,0.11
		c2.57,0,5.2,0,7.77,0c0.45,0,0.89,0,1.34,0c1.9,0.11,2.63,0.78,2.63,2.68c0.06,2.07,0,4.13,0,6.37
		C45.63,22.9,47.64,22.9,49.94,22.9z M51.89,36.2c-3.18-0.39-32.57-0.22-33.92,0.11c0,0.78,0,1.56,0,2.29
		c3.07,0.39,32.52,0.22,33.97-0.17c0.06-0.34,0.11-0.73,0.11-1.06C52.06,37.04,51.95,36.64,51.89,36.2z"/>
	<path d="M47.87,19.6c0.06,0.67-0.5,1.23-1.17,1.23c-0.67,0-1.23-0.56-1.17-1.17c0.06-0.61,0.39-1.06,1.06-1.12
		C47.31,18.48,47.87,18.93,47.87,19.6z"/>
</g>
</svg>
